<svg xmlns="http://www.w3.org/2000/svg" xmlns:xlink="http://www.w3.org/1999/xlink" width="19.704" height="34.672" viewBox="0 0 19.704 34.672">
  <defs>
    <clipPath id="clip-path">
      <rect id="Rectangle_15" data-name="Rectangle 15" width="19.704" height="34.672" fill="#a7b5c5"/>
    </clipPath>
  </defs>
  <g id="Group_11" data-name="Group 11" transform="translate(0 0)" clip-path="url(#clip-path)">
    <path id="Path_8" data-name="Path 8" d="M1335.542,729.238h-5.547a1.682,1.682,0,0,1-1.68-1.68V715.046h-3.237a1.682,1.682,0,0,1-1.68-1.68V708a1.682,1.682,0,0,1,1.68-1.68h3.237v-2.685a9.142,9.142,0,0,1,2.417-6.549,8.706,8.706,0,0,1,6.419-2.491l4.23.007a1.683,1.683,0,0,1,1.677,1.68v4.978a1.682,1.682,0,0,1-1.68,1.68h-2.848c-.869,0-1.09.174-1.137.228-.078.089-.171.339-.171,1.03v2.121h3.942a1.709,1.709,0,0,1,.831.211,1.686,1.686,0,0,1,.864,1.47l0,5.361a1.682,1.682,0,0,1-1.68,1.679h-3.956v12.512a1.682,1.682,0,0,1-1.68,1.68Zm-5.2-2.031h4.846V714.137a1.123,1.123,0,0,1,1.122-1.122h4.515v-4.66h-4.516a1.123,1.123,0,0,1-1.122-1.122V704.2a2.858,2.858,0,0,1,3.339-3.288h2.5v-4.277l-3.878-.007c-4.2,0-6.8,2.686-6.8,7.01v3.594a1.123,1.123,0,0,1-1.122,1.122h-3.795v4.66h3.795a1.123,1.123,0,0,1,1.122,1.122Zm11.031-30.571h0Zm0,0" transform="translate(-1323.364 -694.633)" fill="#a7b5c5"/>
  </g>
</svg>
