<svg xmlns="http://www.w3.org/2000/svg" width="34.672" height="34.672" viewBox="0 0 34.672 34.672">
  <g id="Group_61" data-name="Group 61" transform="translate(0 0)">
    <path id="Path_5" data-name="Path 5" d="M25.3,34.672H9.368A9.379,9.379,0,0,1,0,25.3V9.368A9.379,9.379,0,0,1,9.368,0H25.3a9.379,9.379,0,0,1,9.368,9.368V25.3A9.379,9.379,0,0,1,25.3,34.672ZM9.368,2.8A6.575,6.575,0,0,0,2.8,9.368V25.3a6.575,6.575,0,0,0,6.567,6.567H25.3A6.575,6.575,0,0,0,31.871,25.3V9.368A6.575,6.575,0,0,0,25.3,2.8Z" fill="#a7b5c5"/>
    <path id="Path_6" data-name="Path 6" d="M149.945,155.723a7.776,7.776,0,1,1,7.707-8.917h0a7.775,7.775,0,0,1-6.55,8.831A7.882,7.882,0,0,1,149.945,155.723Zm.016-12.75a4.975,4.975,0,1,0,.73.054A4.964,4.964,0,0,0,149.961,142.972Z" transform="translate(-132.556 -130.679)" fill="#a7b5c5"/>
    <path id="Path_7" data-name="Path 7" d="M366.144,108.694a1.4,1.4,0,1,1,.99-.41A1.411,1.411,0,0,1,366.144,108.694Z" transform="translate(-340.043 -98.722)" fill="#a7b5c5"/>
  </g>
</svg>
