<svg xmlns="http://www.w3.org/2000/svg" xmlns:xlink="http://www.w3.org/1999/xlink" width="30.581" height="26.517" viewBox="0 0 30.581 26.517">
  <defs>
    <clipPath id="clip-path">
      <rect id="Rectangle_55" data-name="Rectangle 55" width="30.581" height="26.517" fill="#59708f"/>
    </clipPath>
  </defs>
  <g id="Group_72" data-name="Group 72" transform="translate(0 0)" clip-path="url(#clip-path)">
    <path id="Path_47" data-name="Path 47" d="M127.368,227.16a13.227,13.227,0,0,0-13.208,13.215v.044l-2.615-3.939a.842.842,0,1,0-1.4.93l3.8,5.712a.845.845,0,0,0,.6.368.619.619,0,0,0,.106.006.826.826,0,0,0,.562-.218l5.275-4.75a.844.844,0,0,0-1.13-1.255l-3.5,3.165v-.062a11.541,11.541,0,1,1,3.384,8.152.843.843,0,1,0-1.192,1.192,13.211,13.211,0,1,0,9.332-22.559Zm0,0" transform="translate(-110 -227.148)" fill="#59708f"/>
  </g>
</svg>
