<svg xmlns="http://www.w3.org/2000/svg" width="14" height="14" viewBox="0 0 14 14">
  <path id="Path_45" data-name="Path 45" d="M302.2,399.2a1.4,1.4,0,1,0,1.4,1.4,1.405,1.405,0,0,0-1.4-1.4ZM298,388v1.4h1.4l2.518,5.318-.981,1.682a2.527,2.527,0,0,0-.14.7,1.406,1.406,0,0,0,1.4,1.4h8.4v-1.4h-8.117a.148.148,0,0,1-.14-.14v-.068l.629-1.189h5.182a1.281,1.281,0,0,0,1.189-.7l2.519-4.549a.389.389,0,0,0,.14-.353.661.661,0,0,0-.7-.7h-10.36l-.628-1.4Zm11.2,11.2a1.4,1.4,0,1,0,1.4,1.4,1.405,1.405,0,0,0-1.4-1.4Zm0,0" transform="translate(-298 -388)" fill="#a7b5c5"/>
</svg>
