<svg xmlns="http://www.w3.org/2000/svg" width="11.631" height="11.605" viewBox="0 0 11.631 11.605">
  <path id="Path_39" data-name="Path 39" d="M1436.008,899.066l-1.8-1.8a.936.936,0,0,0-1.32.025l-.9.9-.179-.1a8.472,8.472,0,0,1-3.754-3.756c-.034-.06-.066-.118-.1-.174l.607-.606.3-.3a.935.935,0,0,0,.024-1.32l-1.8-1.8a.935.935,0,0,0-1.321.025l-.505.509.013.014a2.931,2.931,0,0,0-.416.736,3.023,3.023,0,0,0-.185.746c-.238,1.966.661,3.763,3.1,6.2,3.371,3.37,6.088,3.116,6.205,3.1a3.029,3.029,0,0,0,.748-.188,2.9,2.9,0,0,0,.732-.415l.011.01.514-.5a.938.938,0,0,0,.023-1.322Zm0,0" transform="translate(-1424.638 -889.887)" fill="#a7b5c5"/>
</svg>
