<svg xmlns="http://www.w3.org/2000/svg" width="48.224" height="70" viewBox="0 0 48.224 70">
  <path id="Path_43" data-name="Path 43" d="M584.085,1199.424a22.05,22.05,0,0,0-1.132-2.8c-4.478-10.762-14.264-14.621-22.168-14.621-10.577,0-22.228,7.094-23.785,21.716v2.985c0,.125.042,1.245.1,1.807.874,6.965,6.373,14.371,10.479,21.34,4.417,7.466,9,14.811,13.542,22.152,2.8-4.793,5.594-9.646,8.329-14.314.748-1.367,1.614-2.734,2.359-4.041.5-.874,1.451-1.743,1.883-2.552,4.417-8.089,11.531-16.239,11.531-24.267v-3.3a24.83,24.83,0,0,0-1.139-4.1Zm-23.106,14.994a8.554,8.554,0,0,1-8.192-5.849,8.113,8.113,0,0,1-.231-2.18v-1.93c0-5.473,4.648-7.963,8.693-7.963a8.814,8.814,0,0,1,8.827,8.963,9.037,9.037,0,0,1-9.1,8.959Zm0,0" transform="translate(-537 -1182)" fill="#cc6a6a"/>
</svg>
