<svg xmlns="http://www.w3.org/2000/svg" width="43.51" height="63.158" viewBox="0 0 43.51 63.158">
  <path id="Path_43" data-name="Path 43" d="M579.482,1197.721a19.893,19.893,0,0,0-1.021-2.529,21.637,21.637,0,0,0-41.461,6.4v2.693c0,.113.038,1.124.092,1.631.789,6.284,5.75,12.967,9.454,19.254,3.985,6.736,8.121,13.363,12.218,19.987,2.529-4.325,5.047-8.7,7.515-12.915.675-1.233,1.456-2.467,2.128-3.646.448-.788,1.309-1.573,1.7-2.3,3.985-7.3,10.4-14.652,10.4-21.9v-2.975a22.4,22.4,0,0,0-1.028-3.7Zm-20.847,13.528a7.718,7.718,0,0,1-7.391-5.277,7.318,7.318,0,0,1-.209-1.966v-1.741c0-4.938,4.194-7.185,7.843-7.185a7.952,7.952,0,0,1,7.964,8.087,8.154,8.154,0,0,1-8.207,8.083Zm0,0" transform="translate(-537 -1182)" fill="#a7b5c5"/>
</svg>
