<svg xmlns="http://www.w3.org/2000/svg" width="31.933" height="41.65" viewBox="0 0 31.933 41.65">
  <path id="Path_48" data-name="Path 48" d="M315.471,401.773l-6.633-3.315a1.831,1.831,0,0,1-1.013-1.643v-2.345q.24-.3.5-.661a15.854,15.854,0,0,0,2.051-4.027,2.752,2.752,0,0,0,1.617-2.508v-2.78a2.763,2.763,0,0,0-.7-1.82v-3.695a6.224,6.224,0,0,0-1.451-4.529c-1.427-1.627-3.742-2.45-6.881-2.45s-5.45.823-6.877,2.45a6.206,6.206,0,0,0-1.451,4.529v3.695a2.763,2.763,0,0,0-.7,1.82v2.78a2.751,2.751,0,0,0,1.04,2.155,14.53,14.53,0,0,0,2.43,5.023v2.3a1.833,1.833,0,0,1-.956,1.61l-6.192,3.379a6.257,6.257,0,0,0-3.264,5.5v2.247c0,3.295,10.443,4.166,15.964,4.166s15.968-.871,15.968-4.166v-2.111a6.232,6.232,0,0,0-3.461-5.6Zm2.071,7.711c0,.942-5.145,2.776-14.578,2.776s-14.574-1.833-14.574-2.776v-2.247a4.871,4.871,0,0,1,2.538-4.277l6.193-3.38a3.224,3.224,0,0,0,1.682-2.83v-2.789l-.163-.193a13.1,13.1,0,0,1-2.365-4.9l-.065-.275-.237-.153a1.379,1.379,0,0,1-.64-1.162v-2.78a1.364,1.364,0,0,1,.464-1.023l.227-.207v-4.321l0-.091a4.8,4.8,0,0,1,1.112-3.485c1.152-1.312,3.115-1.976,5.833-1.976s4.671.657,5.823,1.962a4.863,4.863,0,0,1,1.125,3.5l-.007,4.412.231.211a1.364,1.364,0,0,1,.464,1.02v2.78a1.384,1.384,0,0,1-.987,1.318l-.345.105-.112.343A14.558,14.558,0,0,1,307.192,393a8.789,8.789,0,0,1-.583.749l-.174.2v2.864a3.209,3.209,0,0,0,1.783,2.884l6.63,3.315a4.843,4.843,0,0,1,2.694,4.359Zm0,0" transform="translate(-287 -372)" fill="#a7b5c5"/>
</svg>
